<svg xmlns="http://www.w3.org/2000/svg" width="320" height="120" viewBox="0 0 320 120" role="img" aria-label="Training load last 30 days">
  <line x1="10" y1="110" x2="310" y2="110" stroke="#8c959f" stroke-width="1" />
  <rect x="10.00" y="56.81" width="8.07" height="53.19" rx="1" fill="#58a6ff" />
  <rect x="20.07" y="110.00" width="8.07" height="0.00" rx="1" fill="#58a6ff" />
  <rect x="30.13" y="33.94" width="8.07" height="76.06" rx="1" fill="#58a6ff" />
  <rect x="40.20" y="56.28" width="8.07" height="53.72" rx="1" fill="#58a6ff" />
  <rect x="50.27" y="110.00" width="8.07" height="0.00" rx="1" fill="#58a6ff" />
  <rect x="60.33" y="10.00" width="8.07" height="100.00" rx="1" fill="#58a6ff" />
  <rect x="70.40" y="48.30" width="8.07" height="61.70" rx="1" fill="#58a6ff" />
  <rect x="80.47" y="48.83" width="8.07" height="61.17" rx="1" fill="#58a6ff" />
  <rect x="90.53" y="110.00" width="8.07" height="0.00" rx="1" fill="#58a6ff" />
  <rect x="100.60" y="49.89" width="8.07" height="60.11" rx="1" fill="#58a6ff" />
  <rect x="110.67" y="110.00" width="8.07" height="0.00" rx="1" fill="#58a6ff" />
  <rect x="120.73" y="36.06" width="8.07" height="73.94" rx="1" fill="#58a6ff" />
  <rect x="130.80" y="33.94" width="8.07" height="76.06" rx="1" fill="#58a6ff" />
  <rect x="140.87" y="57.34" width="8.07" height="52.66" rx="1" fill="#58a6ff" />
  <rect x="150.93" y="45.11" width="8.07" height="64.89" rx="1" fill="#58a6ff" />
  <rect x="161.00" y="110.00" width="8.07" height="0.00" rx="1" fill="#58a6ff" />
  <rect x="171.07" y="29.68" width="8.07" height="80.32" rx="1" fill="#58a6ff" />
  <rect x="181.13" y="41.91" width="8.07" height="68.09" rx="1" fill="#58a6ff" />
  <rect x="191.20" y="35.53" width="8.07" height="74.47" rx="1" fill="#58a6ff" />
  <rect x="201.27" y="33.94" width="8.07" height="76.06" rx="1" fill="#58a6ff" />
  <rect x="211.33" y="110.00" width="8.07" height="0.00" rx="1" fill="#58a6ff" />
  <rect x="221.40" y="29.68" width="8.07" height="80.32" rx="1" fill="#58a6ff" />
  <rect x="231.47" y="55.74" width="8.07" height="54.26" rx="1" fill="#58a6ff" />
  <rect x="241.53" y="41.38" width="8.07" height="68.62" rx="1" fill="#58a6ff" />
  <rect x="251.60" y="110.00" width="8.07" height="0.00" rx="1" fill="#58a6ff" />
  <rect x="261.67" y="21.17" width="8.07" height="88.83" rx="1" fill="#58a6ff" />
  <rect x="271.73" y="11.60" width="8.07" height="98.40" rx="1" fill="#58a6ff" />
  <rect x="281.80" y="90.85" width="8.07" height="19.15" rx="1" fill="#58a6ff" />
  <rect x="291.87" y="29.15" width="8.07" height="80.85" rx="1" fill="#58a6ff" />
  <rect x="301.93" y="110.00" width="8.07" height="0.00" rx="1" fill="#58a6ff" />
</svg>
