<svg xmlns="http://www.w3.org/2000/svg" width="320" height="120" viewBox="0 0 320 120" role="img" aria-label="Training load last 30 days">
  <line x1="10" y1="110" x2="310" y2="110" stroke="#8c959f" stroke-width="1" />
  <rect x="10.00" y="83.66" width="8.07" height="26.34" rx="1" fill="#58a6ff" />
  <rect x="20.07" y="110.00" width="8.07" height="0.00" rx="1" fill="#58a6ff" />
  <rect x="30.13" y="104.15" width="8.07" height="5.85" rx="1" fill="#58a6ff" />
  <rect x="40.20" y="56.83" width="8.07" height="53.17" rx="1" fill="#58a6ff" />
  <rect x="50.27" y="48.05" width="8.07" height="61.95" rx="1" fill="#58a6ff" />
  <rect x="60.33" y="90.00" width="8.07" height="20.00" rx="1" fill="#58a6ff" />
  <rect x="70.40" y="99.27" width="8.07" height="10.73" rx="1" fill="#58a6ff" />
  <rect x="80.47" y="82.68" width="8.07" height="27.32" rx="1" fill="#58a6ff" />
  <rect x="90.53" y="110.00" width="8.07" height="0.00" rx="1" fill="#58a6ff" />
  <rect x="100.60" y="88.54" width="8.07" height="21.46" rx="1" fill="#58a6ff" />
  <rect x="110.67" y="73.41" width="8.07" height="36.59" rx="1" fill="#58a6ff" />
  <rect x="120.73" y="83.17" width="8.07" height="26.83" rx="1" fill="#58a6ff" />
  <rect x="130.80" y="67.56" width="8.07" height="42.44" rx="1" fill="#58a6ff" />
  <rect x="140.87" y="107.32" width="8.07" height="2.68" rx="1" fill="#58a6ff" />
  <rect x="150.93" y="78.54" width="8.07" height="31.46" rx="1" fill="#58a6ff" />
  <rect x="161.00" y="96.34" width="8.07" height="13.66" rx="1" fill="#58a6ff" />
  <rect x="171.07" y="96.10" width="8.07" height="13.90" rx="1" fill="#58a6ff" />
  <rect x="181.13" y="110.00" width="8.07" height="0.00" rx="1" fill="#58a6ff" />
  <rect x="191.20" y="30.49" width="8.07" height="79.51" rx="1" fill="#58a6ff" />
  <rect x="201.27" y="10.00" width="8.07" height="100.00" rx="1" fill="#58a6ff" />
  <rect x="211.33" y="107.80" width="8.07" height="2.20" rx="1" fill="#58a6ff" />
  <rect x="221.40" y="104.63" width="8.07" height="5.37" rx="1" fill="#58a6ff" />
  <rect x="231.47" y="90.00" width="8.07" height="20.00" rx="1" fill="#58a6ff" />
  <rect x="241.53" y="81.46" width="8.07" height="28.54" rx="1" fill="#58a6ff" />
  <rect x="251.60" y="105.37" width="8.07" height="4.63" rx="1" fill="#58a6ff" />
  <rect x="261.67" y="91.22" width="8.07" height="18.78" rx="1" fill="#58a6ff" />
  <rect x="271.73" y="81.22" width="8.07" height="28.78" rx="1" fill="#58a6ff" />
  <rect x="281.80" y="98.54" width="8.07" height="11.46" rx="1" fill="#58a6ff" />
  <rect x="291.87" y="94.39" width="8.07" height="15.61" rx="1" fill="#58a6ff" />
  <rect x="301.93" y="110.00" width="8.07" height="0.00" rx="1" fill="#58a6ff" />
</svg>
