<svg xmlns="http://www.w3.org/2000/svg" width="320" height="120" viewBox="0 0 320 120" role="img" aria-label="Training load last 30 days">
  <line x1="10" y1="110" x2="310" y2="110" stroke="#8c959f" stroke-width="1" />
  <rect x="10.00" y="78.24" width="8.07" height="31.76" rx="1" fill="#58a6ff" />
  <rect x="20.07" y="53.35" width="8.07" height="56.65" rx="1" fill="#58a6ff" />
  <rect x="30.13" y="103.13" width="8.07" height="6.87" rx="1" fill="#58a6ff" />
  <rect x="40.20" y="62.79" width="8.07" height="47.21" rx="1" fill="#58a6ff" />
  <rect x="50.27" y="94.55" width="8.07" height="15.45" rx="1" fill="#58a6ff" />
  <rect x="60.33" y="10.00" width="8.07" height="100.00" rx="1" fill="#58a6ff" />
  <rect x="70.40" y="110.00" width="8.07" height="0.00" rx="1" fill="#58a6ff" />
  <rect x="80.47" y="63.22" width="8.07" height="46.78" rx="1" fill="#58a6ff" />
  <rect x="90.53" y="70.09" width="8.07" height="39.91" rx="1" fill="#58a6ff" />
  <rect x="100.60" y="64.51" width="8.07" height="45.49" rx="1" fill="#58a6ff" />
  <rect x="110.67" y="107.42" width="8.07" height="2.58" rx="1" fill="#58a6ff" />
  <rect x="120.73" y="55.49" width="8.07" height="54.51" rx="1" fill="#58a6ff" />
  <rect x="130.80" y="13.86" width="8.07" height="96.14" rx="1" fill="#58a6ff" />
  <rect x="140.87" y="106.14" width="8.07" height="3.86" rx="1" fill="#58a6ff" />
  <rect x="150.93" y="59.79" width="8.07" height="50.21" rx="1" fill="#58a6ff" />
  <rect x="161.00" y="57.21" width="8.07" height="52.79" rx="1" fill="#58a6ff" />
  <rect x="171.07" y="78.67" width="8.07" height="31.33" rx="1" fill="#58a6ff" />
  <rect x="181.13" y="110.00" width="8.07" height="0.00" rx="1" fill="#58a6ff" />
  <rect x="191.20" y="55.49" width="8.07" height="54.51" rx="1" fill="#58a6ff" />
  <rect x="201.27" y="24.16" width="8.07" height="85.84" rx="1" fill="#58a6ff" />
  <rect x="211.33" y="110.00" width="8.07" height="0.00" rx="1" fill="#58a6ff" />
  <rect x="221.40" y="59.79" width="8.07" height="50.21" rx="1" fill="#58a6ff" />
  <rect x="231.47" y="58.93" width="8.07" height="51.07" rx="1" fill="#58a6ff" />
  <rect x="241.53" y="110.00" width="8.07" height="0.00" rx="1" fill="#58a6ff" />
  <rect x="251.60" y="55.49" width="8.07" height="54.51" rx="1" fill="#58a6ff" />
  <rect x="261.67" y="70.94" width="8.07" height="39.06" rx="1" fill="#58a6ff" />
  <rect x="271.73" y="89.40" width="8.07" height="20.60" rx="1" fill="#58a6ff" />
  <rect x="281.80" y="67.51" width="8.07" height="42.49" rx="1" fill="#58a6ff" />
  <rect x="291.87" y="57.21" width="8.07" height="52.79" rx="1" fill="#58a6ff" />
  <rect x="301.93" y="110.00" width="8.07" height="0.00" rx="1" fill="#58a6ff" />
</svg>
