<svg xmlns="http://www.w3.org/2000/svg" width="320" height="120" viewBox="0 0 320 120" role="img" aria-label="Training load last 30 days">
  <line x1="10" y1="110" x2="310" y2="110" stroke="#8c959f" stroke-width="1" />
  <rect x="10.00" y="105.42" width="8.07" height="4.58" rx="1" fill="#58a6ff" />
  <rect x="20.07" y="10.00" width="8.07" height="100.00" rx="1" fill="#58a6ff" />
  <rect x="30.13" y="110.00" width="8.07" height="0.00" rx="1" fill="#58a6ff" />
  <rect x="40.20" y="54.66" width="8.07" height="55.34" rx="1" fill="#58a6ff" />
  <rect x="50.27" y="61.53" width="8.07" height="48.47" rx="1" fill="#58a6ff" />
  <rect x="60.33" y="110.00" width="8.07" height="0.00" rx="1" fill="#58a6ff" />
  <rect x="70.40" y="110.00" width="8.07" height="0.00" rx="1" fill="#58a6ff" />
  <rect x="80.47" y="77.18" width="8.07" height="32.82" rx="1" fill="#58a6ff" />
  <rect x="90.53" y="103.89" width="8.07" height="6.11" rx="1" fill="#58a6ff" />
  <rect x="100.60" y="50.08" width="8.07" height="59.92" rx="1" fill="#58a6ff" />
  <rect x="110.67" y="81.76" width="8.07" height="28.24" rx="1" fill="#58a6ff" />
  <rect x="120.73" y="59.62" width="8.07" height="50.38" rx="1" fill="#58a6ff" />
  <rect x="130.80" y="103.89" width="8.07" height="6.11" rx="1" fill="#58a6ff" />
  <rect x="140.87" y="68.02" width="8.07" height="41.98" rx="1" fill="#58a6ff" />
  <rect x="150.93" y="96.26" width="8.07" height="13.74" rx="1" fill="#58a6ff" />
  <rect x="161.00" y="21.07" width="8.07" height="88.93" rx="1" fill="#58a6ff" />
  <rect x="171.07" y="110.00" width="8.07" height="0.00" rx="1" fill="#58a6ff" />
  <rect x="181.13" y="68.40" width="8.07" height="41.60" rx="1" fill="#58a6ff" />
  <rect x="191.20" y="74.50" width="8.07" height="35.50" rx="1" fill="#58a6ff" />
  <rect x="201.27" y="69.54" width="8.07" height="40.46" rx="1" fill="#58a6ff" />
  <rect x="211.33" y="107.71" width="8.07" height="2.29" rx="1" fill="#58a6ff" />
  <rect x="221.40" y="61.53" width="8.07" height="48.47" rx="1" fill="#58a6ff" />
  <rect x="231.47" y="24.50" width="8.07" height="85.50" rx="1" fill="#58a6ff" />
  <rect x="241.53" y="106.56" width="8.07" height="3.44" rx="1" fill="#58a6ff" />
  <rect x="251.60" y="65.34" width="8.07" height="44.66" rx="1" fill="#58a6ff" />
  <rect x="261.67" y="63.05" width="8.07" height="46.95" rx="1" fill="#58a6ff" />
  <rect x="271.73" y="82.14" width="8.07" height="27.86" rx="1" fill="#58a6ff" />
  <rect x="281.80" y="110.00" width="8.07" height="0.00" rx="1" fill="#58a6ff" />
  <rect x="291.87" y="61.53" width="8.07" height="48.47" rx="1" fill="#58a6ff" />
  <rect x="301.93" y="110.00" width="8.07" height="0.00" rx="1" fill="#58a6ff" />
</svg>
