<svg xmlns="http://www.w3.org/2000/svg" width="320" height="120" viewBox="0 0 320 120" role="img" aria-label="Training load last 30 days">
  <line x1="10" y1="110" x2="310" y2="110" stroke="#8c959f" stroke-width="1" />
  <rect x="10.00" y="110.00" width="8.07" height="0.00" rx="1" fill="#58a6ff" />
  <rect x="20.07" y="110.00" width="8.07" height="0.00" rx="1" fill="#58a6ff" />
  <rect x="30.13" y="30.11" width="8.07" height="79.89" rx="1" fill="#58a6ff" />
  <rect x="40.20" y="46.87" width="8.07" height="63.13" rx="1" fill="#58a6ff" />
  <rect x="50.27" y="54.13" width="8.07" height="55.87" rx="1" fill="#58a6ff" />
  <rect x="60.33" y="106.09" width="8.07" height="3.91" rx="1" fill="#58a6ff" />
  <rect x="70.40" y="44.64" width="8.07" height="65.36" rx="1" fill="#58a6ff" />
  <rect x="80.47" y="110.00" width="8.07" height="0.00" rx="1" fill="#58a6ff" />
  <rect x="90.53" y="32.91" width="8.07" height="77.09" rx="1" fill="#58a6ff" />
  <rect x="100.60" y="32.91" width="8.07" height="77.09" rx="1" fill="#58a6ff" />
  <rect x="110.67" y="27.32" width="8.07" height="82.68" rx="1" fill="#58a6ff" />
  <rect x="120.73" y="110.00" width="8.07" height="0.00" rx="1" fill="#58a6ff" />
  <rect x="130.80" y="40.73" width="8.07" height="69.27" rx="1" fill="#58a6ff" />
  <rect x="140.87" y="110.00" width="8.07" height="0.00" rx="1" fill="#58a6ff" />
  <rect x="150.93" y="42.40" width="8.07" height="67.60" rx="1" fill="#58a6ff" />
  <rect x="161.00" y="42.40" width="8.07" height="67.60" rx="1" fill="#58a6ff" />
  <rect x="171.07" y="18.94" width="8.07" height="91.06" rx="1" fill="#58a6ff" />
  <rect x="181.13" y="23.41" width="8.07" height="86.59" rx="1" fill="#58a6ff" />
  <rect x="191.20" y="110.00" width="8.07" height="0.00" rx="1" fill="#58a6ff" />
  <rect x="201.27" y="110.00" width="8.07" height="0.00" rx="1" fill="#58a6ff" />
  <rect x="211.33" y="21.17" width="8.07" height="88.83" rx="1" fill="#58a6ff" />
  <rect x="221.40" y="54.69" width="8.07" height="55.31" rx="1" fill="#58a6ff" />
  <rect x="231.47" y="10.00" width="8.07" height="100.00" rx="1" fill="#58a6ff" />
  <rect x="241.53" y="47.99" width="8.07" height="62.01" rx="1" fill="#58a6ff" />
  <rect x="251.60" y="16.15" width="8.07" height="93.85" rx="1" fill="#58a6ff" />
  <rect x="261.67" y="110.00" width="8.07" height="0.00" rx="1" fill="#58a6ff" />
  <rect x="271.73" y="95.47" width="8.07" height="14.53" rx="1" fill="#58a6ff" />
  <rect x="281.80" y="42.40" width="8.07" height="67.60" rx="1" fill="#58a6ff" />
  <rect x="291.87" y="67.54" width="8.07" height="42.46" rx="1" fill="#58a6ff" />
  <rect x="301.93" y="110.00" width="8.07" height="0.00" rx="1" fill="#58a6ff" />
</svg>
