<svg xmlns="http://www.w3.org/2000/svg" width="320" height="120" viewBox="0 0 320 120" role="img" aria-label="Training load last 30 days">
  <line x1="10" y1="110" x2="310" y2="110" stroke="#8c959f" stroke-width="1" />
  <rect x="10.00" y="100.23" width="8.07" height="9.77" rx="1" fill="#58a6ff" />
  <rect x="20.07" y="70.47" width="8.07" height="39.53" rx="1" fill="#58a6ff" />
  <rect x="30.13" y="63.49" width="8.07" height="46.51" rx="1" fill="#58a6ff" />
  <rect x="40.20" y="54.19" width="8.07" height="55.81" rx="1" fill="#58a6ff" />
  <rect x="50.27" y="110.00" width="8.07" height="0.00" rx="1" fill="#58a6ff" />
  <rect x="60.33" y="110.00" width="8.07" height="0.00" rx="1" fill="#58a6ff" />
  <rect x="70.40" y="83.02" width="8.07" height="26.98" rx="1" fill="#58a6ff" />
  <rect x="80.47" y="99.30" width="8.07" height="10.70" rx="1" fill="#58a6ff" />
  <rect x="90.53" y="75.58" width="8.07" height="34.42" rx="1" fill="#58a6ff" />
  <rect x="100.60" y="65.81" width="8.07" height="44.19" rx="1" fill="#58a6ff" />
  <rect x="110.67" y="65.35" width="8.07" height="44.65" rx="1" fill="#58a6ff" />
  <rect x="120.73" y="54.19" width="8.07" height="55.81" rx="1" fill="#58a6ff" />
  <rect x="130.80" y="51.86" width="8.07" height="58.14" rx="1" fill="#58a6ff" />
  <rect x="140.87" y="65.35" width="8.07" height="44.65" rx="1" fill="#58a6ff" />
  <rect x="150.93" y="103.95" width="8.07" height="6.05" rx="1" fill="#58a6ff" />
  <rect x="161.00" y="41.63" width="8.07" height="68.37" rx="1" fill="#58a6ff" />
  <rect x="171.07" y="64.88" width="8.07" height="45.12" rx="1" fill="#58a6ff" />
  <rect x="181.13" y="93.72" width="8.07" height="16.28" rx="1" fill="#58a6ff" />
  <rect x="191.20" y="50.47" width="8.07" height="59.53" rx="1" fill="#58a6ff" />
  <rect x="201.27" y="67.21" width="8.07" height="42.79" rx="1" fill="#58a6ff" />
  <rect x="211.33" y="16.51" width="8.07" height="93.49" rx="1" fill="#58a6ff" />
  <rect x="221.40" y="110.00" width="8.07" height="0.00" rx="1" fill="#58a6ff" />
  <rect x="231.47" y="66.74" width="8.07" height="43.26" rx="1" fill="#58a6ff" />
  <rect x="241.53" y="55.12" width="8.07" height="54.88" rx="1" fill="#58a6ff" />
  <rect x="251.60" y="56.98" width="8.07" height="53.02" rx="1" fill="#58a6ff" />
  <rect x="261.67" y="100.23" width="8.07" height="9.77" rx="1" fill="#58a6ff" />
  <rect x="271.73" y="15.58" width="8.07" height="94.42" rx="1" fill="#58a6ff" />
  <rect x="281.80" y="10.00" width="8.07" height="100.00" rx="1" fill="#58a6ff" />
  <rect x="291.87" y="110.00" width="8.07" height="0.00" rx="1" fill="#58a6ff" />
  <rect x="301.93" y="110.00" width="8.07" height="0.00" rx="1" fill="#58a6ff" />
</svg>
