<svg xmlns="http://www.w3.org/2000/svg" width="320" height="120" viewBox="0 0 320 120" role="img" aria-label="Training load last 30 days">
  <line x1="10" y1="110" x2="310" y2="110" stroke="#8c959f" stroke-width="1" />
  <rect x="10.00" y="71.96" width="8.07" height="38.04" rx="1" fill="#58a6ff" />
  <rect x="20.07" y="96.27" width="8.07" height="13.73" rx="1" fill="#58a6ff" />
  <rect x="30.13" y="59.80" width="8.07" height="50.20" rx="1" fill="#58a6ff" />
  <rect x="40.20" y="73.92" width="8.07" height="36.08" rx="1" fill="#58a6ff" />
  <rect x="50.27" y="31.18" width="8.07" height="78.82" rx="1" fill="#58a6ff" />
  <rect x="60.33" y="110.00" width="8.07" height="0.00" rx="1" fill="#58a6ff" />
  <rect x="70.40" y="73.53" width="8.07" height="36.47" rx="1" fill="#58a6ff" />
  <rect x="80.47" y="63.73" width="8.07" height="46.27" rx="1" fill="#58a6ff" />
  <rect x="90.53" y="65.29" width="8.07" height="44.71" rx="1" fill="#58a6ff" />
  <rect x="100.60" y="101.76" width="8.07" height="8.24" rx="1" fill="#58a6ff" />
  <rect x="110.67" y="30.39" width="8.07" height="79.61" rx="1" fill="#58a6ff" />
  <rect x="120.73" y="25.69" width="8.07" height="84.31" rx="1" fill="#58a6ff" />
  <rect x="130.80" y="110.00" width="8.07" height="0.00" rx="1" fill="#58a6ff" />
  <rect x="140.87" y="96.27" width="8.07" height="13.73" rx="1" fill="#58a6ff" />
  <rect x="150.93" y="66.86" width="8.07" height="43.14" rx="1" fill="#58a6ff" />
  <rect x="161.00" y="88.82" width="8.07" height="21.18" rx="1" fill="#58a6ff" />
  <rect x="171.07" y="63.33" width="8.07" height="46.67" rx="1" fill="#58a6ff" />
  <rect x="181.13" y="64.90" width="8.07" height="45.10" rx="1" fill="#58a6ff" />
  <rect x="191.20" y="64.90" width="8.07" height="45.10" rx="1" fill="#58a6ff" />
  <rect x="201.27" y="103.33" width="8.07" height="6.67" rx="1" fill="#58a6ff" />
  <rect x="211.33" y="61.76" width="8.07" height="48.24" rx="1" fill="#58a6ff" />
  <rect x="221.40" y="63.73" width="8.07" height="46.27" rx="1" fill="#58a6ff" />
  <rect x="231.47" y="59.02" width="8.07" height="50.98" rx="1" fill="#58a6ff" />
  <rect x="241.53" y="110.00" width="8.07" height="0.00" rx="1" fill="#58a6ff" />
  <rect x="251.60" y="23.73" width="8.07" height="86.27" rx="1" fill="#58a6ff" />
  <rect x="261.67" y="52.35" width="8.07" height="57.65" rx="1" fill="#58a6ff" />
  <rect x="271.73" y="77.06" width="8.07" height="32.94" rx="1" fill="#58a6ff" />
  <rect x="281.80" y="107.25" width="8.07" height="2.75" rx="1" fill="#58a6ff" />
  <rect x="291.87" y="10.00" width="8.07" height="100.00" rx="1" fill="#58a6ff" />
  <rect x="301.93" y="110.00" width="8.07" height="0.00" rx="1" fill="#58a6ff" />
</svg>
