<svg xmlns="http://www.w3.org/2000/svg" width="320" height="120" viewBox="0 0 320 120" role="img" aria-label="Training load last 30 days">
  <line x1="10" y1="110" x2="310" y2="110" stroke="#8c959f" stroke-width="1" />
  <rect x="10.00" y="82.89" width="8.07" height="27.11" rx="1" fill="#58a6ff" />
  <rect x="20.07" y="110.00" width="8.07" height="0.00" rx="1" fill="#58a6ff" />
  <rect x="30.13" y="81.07" width="8.07" height="28.93" rx="1" fill="#58a6ff" />
  <rect x="40.20" y="89.27" width="8.07" height="20.73" rx="1" fill="#58a6ff" />
  <rect x="50.27" y="99.07" width="8.07" height="10.93" rx="1" fill="#58a6ff" />
  <rect x="60.33" y="87.45" width="8.07" height="22.55" rx="1" fill="#58a6ff" />
  <rect x="70.40" y="81.98" width="8.07" height="28.02" rx="1" fill="#58a6ff" />
  <rect x="80.47" y="91.09" width="8.07" height="18.91" rx="1" fill="#58a6ff" />
  <rect x="90.53" y="107.95" width="8.07" height="2.05" rx="1" fill="#58a6ff" />
  <rect x="100.60" y="99.75" width="8.07" height="10.25" rx="1" fill="#58a6ff" />
  <rect x="110.67" y="50.55" width="8.07" height="59.45" rx="1" fill="#58a6ff" />
  <rect x="120.73" y="89.50" width="8.07" height="20.50" rx="1" fill="#58a6ff" />
  <rect x="130.80" y="107.72" width="8.07" height="2.28" rx="1" fill="#58a6ff" />
  <rect x="140.87" y="84.26" width="8.07" height="25.74" rx="1" fill="#58a6ff" />
  <rect x="150.93" y="85.17" width="8.07" height="24.83" rx="1" fill="#58a6ff" />
  <rect x="161.00" y="106.58" width="8.07" height="3.42" rx="1" fill="#58a6ff" />
  <rect x="171.07" y="110.00" width="8.07" height="0.00" rx="1" fill="#58a6ff" />
  <rect x="181.13" y="10.00" width="8.07" height="100.00" rx="1" fill="#58a6ff" />
  <rect x="191.20" y="105.67" width="8.07" height="4.33" rx="1" fill="#58a6ff" />
  <rect x="201.27" y="95.88" width="8.07" height="14.12" rx="1" fill="#58a6ff" />
  <rect x="211.33" y="85.40" width="8.07" height="24.60" rx="1" fill="#58a6ff" />
  <rect x="221.40" y="110.00" width="8.07" height="0.00" rx="1" fill="#58a6ff" />
  <rect x="231.47" y="104.53" width="8.07" height="5.47" rx="1" fill="#58a6ff" />
  <rect x="241.53" y="60.34" width="8.07" height="49.66" rx="1" fill="#58a6ff" />
  <rect x="251.60" y="52.14" width="8.07" height="57.86" rx="1" fill="#58a6ff" />
  <rect x="261.67" y="91.32" width="8.07" height="18.68" rx="1" fill="#58a6ff" />
  <rect x="271.73" y="99.98" width="8.07" height="10.02" rx="1" fill="#58a6ff" />
  <rect x="281.80" y="84.49" width="8.07" height="25.51" rx="1" fill="#58a6ff" />
  <rect x="291.87" y="110.00" width="8.07" height="0.00" rx="1" fill="#58a6ff" />
  <rect x="301.93" y="109.77" width="8.07" height="0.23" rx="1" fill="#58a6ff" />
</svg>
