<svg xmlns="http://www.w3.org/2000/svg" width="320" height="120" viewBox="0 0 320 120" role="img" aria-label="Training load last 30 days">
  <line x1="10" y1="110" x2="310" y2="110" stroke="#8c959f" stroke-width="1" />
  <rect x="10.00" y="46.32" width="8.07" height="63.68" rx="1" fill="#58a6ff" />
  <rect x="20.07" y="31.05" width="8.07" height="78.95" rx="1" fill="#58a6ff" />
  <rect x="30.13" y="110.00" width="8.07" height="0.00" rx="1" fill="#58a6ff" />
  <rect x="40.20" y="20.00" width="8.07" height="90.00" rx="1" fill="#58a6ff" />
  <rect x="50.27" y="110.00" width="8.07" height="0.00" rx="1" fill="#58a6ff" />
  <rect x="60.33" y="10.00" width="8.07" height="100.00" rx="1" fill="#58a6ff" />
  <rect x="70.40" y="57.37" width="8.07" height="52.63" rx="1" fill="#58a6ff" />
  <rect x="80.47" y="57.37" width="8.07" height="52.63" rx="1" fill="#58a6ff" />
  <rect x="90.53" y="110.00" width="8.07" height="0.00" rx="1" fill="#58a6ff" />
  <rect x="100.60" y="34.74" width="8.07" height="75.26" rx="1" fill="#58a6ff" />
  <rect x="110.67" y="56.84" width="8.07" height="53.16" rx="1" fill="#58a6ff" />
  <rect x="120.73" y="110.00" width="8.07" height="0.00" rx="1" fill="#58a6ff" />
  <rect x="130.80" y="11.05" width="8.07" height="98.95" rx="1" fill="#58a6ff" />
  <rect x="140.87" y="48.95" width="8.07" height="61.05" rx="1" fill="#58a6ff" />
  <rect x="150.93" y="49.47" width="8.07" height="60.53" rx="1" fill="#58a6ff" />
  <rect x="161.00" y="110.00" width="8.07" height="0.00" rx="1" fill="#58a6ff" />
  <rect x="171.07" y="50.53" width="8.07" height="59.47" rx="1" fill="#58a6ff" />
  <rect x="181.13" y="110.00" width="8.07" height="0.00" rx="1" fill="#58a6ff" />
  <rect x="191.20" y="36.84" width="8.07" height="73.16" rx="1" fill="#58a6ff" />
  <rect x="201.27" y="34.74" width="8.07" height="75.26" rx="1" fill="#58a6ff" />
  <rect x="211.33" y="57.89" width="8.07" height="52.11" rx="1" fill="#58a6ff" />
  <rect x="221.40" y="45.79" width="8.07" height="64.21" rx="1" fill="#58a6ff" />
  <rect x="231.47" y="110.00" width="8.07" height="0.00" rx="1" fill="#58a6ff" />
  <rect x="241.53" y="30.53" width="8.07" height="79.47" rx="1" fill="#58a6ff" />
  <rect x="251.60" y="42.63" width="8.07" height="67.37" rx="1" fill="#58a6ff" />
  <rect x="261.67" y="36.32" width="8.07" height="73.68" rx="1" fill="#58a6ff" />
  <rect x="271.73" y="34.74" width="8.07" height="75.26" rx="1" fill="#58a6ff" />
  <rect x="281.80" y="110.00" width="8.07" height="0.00" rx="1" fill="#58a6ff" />
  <rect x="291.87" y="30.53" width="8.07" height="79.47" rx="1" fill="#58a6ff" />
  <rect x="301.93" y="110.00" width="8.07" height="0.00" rx="1" fill="#58a6ff" />
</svg>
