<svg xmlns="http://www.w3.org/2000/svg" width="320" height="120" viewBox="0 0 320 120" role="img" aria-label="Training load last 30 days">
  <line x1="10" y1="110" x2="310" y2="110" stroke="#8c959f" stroke-width="1" />
  <rect x="10.00" y="71.99" width="8.07" height="38.01" rx="1" fill="#58a6ff" />
  <rect x="20.07" y="73.74" width="8.07" height="36.26" rx="1" fill="#58a6ff" />
  <rect x="30.13" y="80.76" width="8.07" height="29.24" rx="1" fill="#58a6ff" />
  <rect x="40.20" y="110.00" width="8.07" height="0.00" rx="1" fill="#58a6ff" />
  <rect x="50.27" y="107.66" width="8.07" height="2.34" rx="1" fill="#58a6ff" />
  <rect x="60.33" y="10.00" width="8.07" height="100.00" rx="1" fill="#58a6ff" />
  <rect x="70.40" y="110.00" width="8.07" height="0.00" rx="1" fill="#58a6ff" />
  <rect x="80.47" y="70.53" width="8.07" height="39.47" rx="1" fill="#58a6ff" />
  <rect x="90.53" y="110.00" width="8.07" height="0.00" rx="1" fill="#58a6ff" />
  <rect x="100.60" y="70.82" width="8.07" height="39.18" rx="1" fill="#58a6ff" />
  <rect x="110.67" y="74.91" width="8.07" height="35.09" rx="1" fill="#58a6ff" />
  <rect x="120.73" y="106.49" width="8.07" height="3.51" rx="1" fill="#58a6ff" />
  <rect x="130.80" y="33.39" width="8.07" height="76.61" rx="1" fill="#58a6ff" />
  <rect x="140.87" y="110.00" width="8.07" height="0.00" rx="1" fill="#58a6ff" />
  <rect x="150.93" y="67.60" width="8.07" height="42.40" rx="1" fill="#58a6ff" />
  <rect x="161.00" y="72.87" width="8.07" height="37.13" rx="1" fill="#58a6ff" />
  <rect x="171.07" y="110.00" width="8.07" height="0.00" rx="1" fill="#58a6ff" />
  <rect x="181.13" y="110.00" width="8.07" height="0.00" rx="1" fill="#58a6ff" />
  <rect x="191.20" y="84.85" width="8.07" height="25.15" rx="1" fill="#58a6ff" />
  <rect x="201.27" y="105.32" width="8.07" height="4.68" rx="1" fill="#58a6ff" />
  <rect x="211.33" y="64.09" width="8.07" height="45.91" rx="1" fill="#58a6ff" />
  <rect x="221.40" y="88.36" width="8.07" height="21.64" rx="1" fill="#58a6ff" />
  <rect x="231.47" y="71.40" width="8.07" height="38.60" rx="1" fill="#58a6ff" />
  <rect x="241.53" y="105.32" width="8.07" height="4.68" rx="1" fill="#58a6ff" />
  <rect x="251.60" y="77.84" width="8.07" height="32.16" rx="1" fill="#58a6ff" />
  <rect x="261.67" y="99.47" width="8.07" height="10.53" rx="1" fill="#58a6ff" />
  <rect x="271.73" y="41.87" width="8.07" height="68.13" rx="1" fill="#58a6ff" />
  <rect x="281.80" y="110.00" width="8.07" height="0.00" rx="1" fill="#58a6ff" />
  <rect x="291.87" y="78.13" width="8.07" height="31.87" rx="1" fill="#58a6ff" />
  <rect x="301.93" y="110.00" width="8.07" height="0.00" rx="1" fill="#58a6ff" />
</svg>
