<svg xmlns="http://www.w3.org/2000/svg" width="320" height="120" viewBox="0 0 320 120" role="img" aria-label="Training load last 30 days">
  <line x1="10" y1="110" x2="310" y2="110" stroke="#8c959f" stroke-width="1" />
  <rect x="10.00" y="69.39" width="8.07" height="40.61" rx="1" fill="#58a6ff" />
  <rect x="20.07" y="107.70" width="8.07" height="2.30" rx="1" fill="#58a6ff" />
  <rect x="30.13" y="61.34" width="8.07" height="48.66" rx="1" fill="#58a6ff" />
  <rect x="40.20" y="24.18" width="8.07" height="85.82" rx="1" fill="#58a6ff" />
  <rect x="50.27" y="106.55" width="8.07" height="3.45" rx="1" fill="#58a6ff" />
  <rect x="60.33" y="65.17" width="8.07" height="44.83" rx="1" fill="#58a6ff" />
  <rect x="70.40" y="62.87" width="8.07" height="47.13" rx="1" fill="#58a6ff" />
  <rect x="80.47" y="82.03" width="8.07" height="27.97" rx="1" fill="#58a6ff" />
  <rect x="90.53" y="110.00" width="8.07" height="0.00" rx="1" fill="#58a6ff" />
  <rect x="100.60" y="61.34" width="8.07" height="48.66" rx="1" fill="#58a6ff" />
  <rect x="110.67" y="33.37" width="8.07" height="76.63" rx="1" fill="#58a6ff" />
  <rect x="120.73" y="110.00" width="8.07" height="0.00" rx="1" fill="#58a6ff" />
  <rect x="130.80" y="65.17" width="8.07" height="44.83" rx="1" fill="#58a6ff" />
  <rect x="140.87" y="64.41" width="8.07" height="45.59" rx="1" fill="#58a6ff" />
  <rect x="150.93" y="110.00" width="8.07" height="0.00" rx="1" fill="#58a6ff" />
  <rect x="161.00" y="61.34" width="8.07" height="48.66" rx="1" fill="#58a6ff" />
  <rect x="171.07" y="75.13" width="8.07" height="34.87" rx="1" fill="#58a6ff" />
  <rect x="181.13" y="91.61" width="8.07" height="18.39" rx="1" fill="#58a6ff" />
  <rect x="191.20" y="72.07" width="8.07" height="37.93" rx="1" fill="#58a6ff" />
  <rect x="201.27" y="62.87" width="8.07" height="47.13" rx="1" fill="#58a6ff" />
  <rect x="211.33" y="78.20" width="8.07" height="31.80" rx="1" fill="#58a6ff" />
  <rect x="221.40" y="106.55" width="8.07" height="3.45" rx="1" fill="#58a6ff" />
  <rect x="231.47" y="92.76" width="8.07" height="17.24" rx="1" fill="#58a6ff" />
  <rect x="241.53" y="10.00" width="8.07" height="100.00" rx="1" fill="#58a6ff" />
  <rect x="251.60" y="75.52" width="8.07" height="34.48" rx="1" fill="#58a6ff" />
  <rect x="261.67" y="106.55" width="8.07" height="3.45" rx="1" fill="#58a6ff" />
  <rect x="271.73" y="68.62" width="8.07" height="41.38" rx="1" fill="#58a6ff" />
  <rect x="281.80" y="68.24" width="8.07" height="41.76" rx="1" fill="#58a6ff" />
  <rect x="291.87" y="104.25" width="8.07" height="5.75" rx="1" fill="#58a6ff" />
  <rect x="301.93" y="110.00" width="8.07" height="0.00" rx="1" fill="#58a6ff" />
</svg>
